G04*
G04 #@! TF.GenerationSoftware,Altium Limited,Altium Designer,25.1.2 (22)*
G04*
G04 Layer_Color=128*
%FSLAX25Y25*%
%MOIN*%
G70*
G04*
G04 #@! TF.SameCoordinates,F9270A21-815C-4611-AB15-1A1B74E7ADE5*
G04*
G04*
G04 #@! TF.FilePolarity,Positive*
G04*
G01*
G75*
%ADD11C,0.00500*%
D11*
X188976Y299213D02*
X200787D01*
X194882Y293307D02*
Y305118D01*
X23622Y299213D02*
X35433D01*
X29528Y293307D02*
Y305118D01*
X188976Y23622D02*
X200787D01*
X194882Y17717D02*
Y29528D01*
X23622Y23622D02*
X35433D01*
X29528Y17717D02*
Y29528D01*
X115650Y312992D02*
X119980D01*
X117815Y310827D02*
Y315158D01*
X115650Y293307D02*
X119980D01*
X117815Y291142D02*
Y295472D01*
X101870Y312992D02*
X106201D01*
X104035Y310827D02*
Y315158D01*
X101870Y293307D02*
X106201D01*
X104035Y291142D02*
Y295472D01*
X88091Y312992D02*
X92421D01*
X90256Y310827D02*
Y315158D01*
X88091Y293307D02*
X92421D01*
X90256Y291142D02*
Y295472D01*
X17520Y190945D02*
X21850D01*
X19685Y188779D02*
Y193110D01*
X37205Y190945D02*
X41535D01*
X39370Y188779D02*
Y193110D01*
X17520Y177165D02*
X21850D01*
X19685Y175000D02*
Y179331D01*
X37205Y177165D02*
X41535D01*
X39370Y175000D02*
Y179331D01*
X17520Y253937D02*
X21850D01*
X19685Y251772D02*
Y256102D01*
X37205Y253937D02*
X41535D01*
X39370Y251772D02*
Y256102D01*
X17520Y240158D02*
X21850D01*
X19685Y237992D02*
Y242323D01*
X37205Y240158D02*
X41535D01*
X39370Y237992D02*
Y242323D01*
X217913Y244291D02*
X222244D01*
X220079Y242126D02*
Y246457D01*
X198228Y244291D02*
X202559D01*
X200394Y242126D02*
Y246457D01*
X217913Y258071D02*
X222244D01*
X220079Y255906D02*
Y260236D01*
X198228Y258071D02*
X202559D01*
X200394Y255906D02*
Y260236D01*
X217913Y181299D02*
X222244D01*
X220079Y179134D02*
Y183465D01*
X198228Y181299D02*
X202559D01*
X200394Y179134D02*
Y183465D01*
X217913Y195079D02*
X222244D01*
X220079Y192913D02*
Y197244D01*
X198228Y195079D02*
X202559D01*
X200394Y192913D02*
Y197244D01*
X17520Y127953D02*
X21850D01*
X19685Y125787D02*
Y130118D01*
X37205Y127953D02*
X41535D01*
X39370Y125787D02*
Y130118D01*
X17520Y114173D02*
X21850D01*
X19685Y112008D02*
Y116339D01*
X37205Y114173D02*
X41535D01*
X39370Y112008D02*
Y116339D01*
X217913Y118307D02*
X222244D01*
X220079Y116142D02*
Y120472D01*
X198228Y118307D02*
X202559D01*
X200394Y116142D02*
Y120472D01*
X217913Y132087D02*
X222244D01*
X220079Y129921D02*
Y134252D01*
X198228Y132087D02*
X202559D01*
X200394Y129921D02*
Y134252D01*
X17520Y64961D02*
X21850D01*
X19685Y62795D02*
Y67126D01*
X37205Y64961D02*
X41535D01*
X39370Y62795D02*
Y67126D01*
X17520Y51181D02*
X21850D01*
X19685Y49016D02*
Y53347D01*
X37205Y51181D02*
X41535D01*
X39370Y49016D02*
Y53347D01*
X217913Y55315D02*
X222244D01*
X220079Y53150D02*
Y57480D01*
X198228Y55315D02*
X202559D01*
X200394Y53150D02*
Y57480D01*
X217913Y69095D02*
X222244D01*
X220079Y66929D02*
Y71260D01*
X198228Y69095D02*
X202559D01*
X200394Y66929D02*
Y71260D01*
X190460Y241526D02*
X191642D01*
X191051Y240936D02*
Y242117D01*
X193823Y241526D02*
X195004D01*
X194413Y240936D02*
Y242117D01*
X187098Y178534D02*
X188279D01*
X187689Y177944D02*
Y179125D01*
X185589Y247056D02*
X186770D01*
X186180Y246466D02*
Y247647D01*
X205006Y246028D02*
X206188D01*
X205597Y245438D02*
Y246619D01*
X190460Y115542D02*
X191642D01*
X191051Y114952D02*
Y116133D01*
X205037Y116682D02*
X206218D01*
X205627Y116091D02*
Y117272D01*
X188951Y58080D02*
X190132D01*
X189542Y57489D02*
Y58671D01*
X172456Y185531D02*
X173637D01*
X173047Y184940D02*
Y186121D01*
X199803Y123769D02*
X200984D01*
X200394Y123178D02*
Y124360D01*
X182543Y248479D02*
X183724D01*
X183133Y247889D02*
Y249070D01*
X185589Y121072D02*
X186770D01*
X186180Y120482D02*
Y121663D01*
X196695Y239779D02*
X197876D01*
X197286Y239189D02*
Y240370D01*
X187098Y241526D02*
X188279D01*
X187689Y240936D02*
Y242117D01*
X188951Y247056D02*
X190132D01*
X189542Y246466D02*
Y247647D01*
X205037Y242666D02*
X206218D01*
X205627Y242076D02*
Y243257D01*
X185589Y58080D02*
X186770D01*
X186180Y57489D02*
Y58671D01*
X199918Y49846D02*
X201099D01*
X200509Y49255D02*
Y50436D01*
X173882Y51083D02*
X175063D01*
X174472Y50493D02*
Y51674D01*
X199803Y249753D02*
X200984D01*
X200394Y249163D02*
Y250344D01*
X195594Y247794D02*
X196775D01*
X196184Y247203D02*
Y248385D01*
X188951Y184064D02*
X190132D01*
X189542Y183474D02*
Y184655D01*
X175818Y185509D02*
X176999D01*
X176409Y184918D02*
Y186100D01*
X205006Y57052D02*
X206188D01*
X205597Y56461D02*
Y57642D01*
X196695Y50803D02*
X197876D01*
X197286Y50212D02*
Y51393D01*
X203006Y185739D02*
X204187D01*
X203597Y185148D02*
Y186329D01*
X195594Y58818D02*
X196775D01*
X196184Y58227D02*
Y59408D01*
X192313Y58080D02*
X193495D01*
X192904Y57489D02*
Y58671D01*
X192313Y184064D02*
X193495D01*
X192904Y183474D02*
Y184655D01*
X173882Y114075D02*
X175063D01*
X174472Y113485D02*
Y114666D01*
X195594Y121810D02*
X196775D01*
X196184Y121219D02*
Y122400D01*
X192313Y247056D02*
X193495D01*
X192904Y246466D02*
Y247647D01*
X203096Y176929D02*
X204277D01*
X203686Y176338D02*
Y177519D01*
X205006Y120044D02*
X206188D01*
X205597Y119453D02*
Y120634D01*
X179181Y59527D02*
X180362D01*
X179771Y58936D02*
Y60118D01*
X199803Y186761D02*
X200984D01*
X200394Y186170D02*
Y187352D01*
X205037Y53690D02*
X206218D01*
X205627Y53099D02*
Y54280D01*
X199918Y238822D02*
X201099D01*
X200509Y238231D02*
Y239412D01*
X203096Y50944D02*
X204277D01*
X203686Y50354D02*
Y51535D01*
X175818Y122517D02*
X176999D01*
X176409Y121926D02*
Y123108D01*
X203006Y122747D02*
X204187D01*
X203597Y122156D02*
Y123337D01*
X195594Y184802D02*
X196775D01*
X196184Y184211D02*
Y185392D01*
X172456Y248523D02*
X173637D01*
X173047Y247933D02*
Y249114D01*
X172456Y122539D02*
X173637D01*
X173047Y121948D02*
Y123129D01*
X175818Y248501D02*
X176999D01*
X176409Y247911D02*
Y249092D01*
X199918Y175830D02*
X201099D01*
X200509Y175239D02*
Y176420D01*
X175818Y59525D02*
X176999D01*
X176409Y58934D02*
Y60115D01*
X187098Y52550D02*
X188279D01*
X187689Y51959D02*
Y53140D01*
X179181Y248503D02*
X180362D01*
X179771Y247913D02*
Y249094D01*
X196695Y176787D02*
X197876D01*
X197286Y176196D02*
Y177377D01*
X182543Y122495D02*
X183724D01*
X183133Y121904D02*
Y123085D01*
X193823Y115542D02*
X195004D01*
X194413Y114952D02*
Y116133D01*
X179181Y185511D02*
X180362D01*
X179771Y184921D02*
Y186102D01*
X205006Y183036D02*
X206188D01*
X205597Y182446D02*
Y183627D01*
X199918Y112838D02*
X201099D01*
X200509Y112247D02*
Y113428D01*
X199803Y60777D02*
X200984D01*
X200394Y60186D02*
Y61367D01*
X203096Y113936D02*
X204277D01*
X203686Y113346D02*
Y114527D01*
X203006Y59754D02*
X204187D01*
X203597Y59164D02*
Y60345D01*
X182543Y59503D02*
X183724D01*
X183133Y58912D02*
Y60093D01*
X203006Y248731D02*
X204187D01*
X203597Y248140D02*
Y249321D01*
X173882Y240060D02*
X175063D01*
X174472Y239469D02*
Y240650D01*
X192313Y121072D02*
X193495D01*
X192904Y120482D02*
Y121663D01*
X179181Y122519D02*
X180362D01*
X179771Y121929D02*
Y123110D01*
X196695Y113795D02*
X197876D01*
X197286Y113204D02*
Y114385D01*
X203096Y239921D02*
X204277D01*
X203686Y239330D02*
Y240511D01*
X173882Y177067D02*
X175063D01*
X174472Y176477D02*
Y177658D01*
X187098Y115542D02*
X188279D01*
X187689Y114952D02*
Y116133D01*
X193823Y52550D02*
X195004D01*
X194413Y51959D02*
Y53140D01*
X190460Y178534D02*
X191642D01*
X191051Y177944D02*
Y179125D01*
X182543Y185487D02*
X183724D01*
X183133Y184897D02*
Y186078D01*
X172456Y59547D02*
X173637D01*
X173047Y58956D02*
Y60137D01*
X188951Y121072D02*
X190132D01*
X189542Y120482D02*
Y121663D01*
X190460Y52550D02*
X191642D01*
X191051Y51959D02*
Y53140D01*
X185589Y184064D02*
X186770D01*
X186180Y183474D02*
Y184655D01*
X205037Y179674D02*
X206218D01*
X205627Y179084D02*
Y180265D01*
X193823Y178534D02*
X195004D01*
X194413Y177944D02*
Y179125D01*
X168487Y59547D02*
X169668D01*
X169078Y58956D02*
Y60137D01*
X168364Y51083D02*
X169545D01*
X168954Y50493D02*
Y51674D01*
X165006Y51247D02*
X166187D01*
X165596Y50656D02*
Y51837D01*
X161932Y52609D02*
X163113D01*
X162522Y52018D02*
Y53199D01*
X158570Y52609D02*
X159751D01*
X159160Y52018D02*
Y53199D01*
X155207Y52609D02*
X156388D01*
X155798Y52018D02*
Y53199D01*
X151845Y52609D02*
X153026D01*
X152436Y52018D02*
Y53199D01*
X148483Y52609D02*
X149664D01*
X149073Y52018D02*
Y53199D01*
X145121Y52609D02*
X146302D01*
X145711Y52018D02*
Y53199D01*
X141759Y52609D02*
X142940D01*
X142349Y52018D02*
Y53199D01*
X129087Y54012D02*
X130268D01*
X129677Y53422D02*
Y54603D01*
X129276Y57369D02*
X130457D01*
X129867Y56778D02*
Y57960D01*
X142350Y58139D02*
X143531D01*
X142940Y57548D02*
Y58730D01*
X145712Y58139D02*
X146893D01*
X146303Y57548D02*
Y58730D01*
X149074Y58139D02*
X150255D01*
X149665Y57548D02*
Y58730D01*
X152436Y58139D02*
X153618D01*
X153027Y57548D02*
Y58730D01*
X155799Y58139D02*
X156980D01*
X156389Y57548D02*
Y58730D01*
X159049Y59001D02*
X160230D01*
X159639Y58410D02*
Y59591D01*
X168487Y122539D02*
X169668D01*
X169078Y121948D02*
Y123129D01*
X168364Y114075D02*
X169545D01*
X168954Y113485D02*
Y114666D01*
X165006Y114239D02*
X166187D01*
X165596Y113648D02*
Y114829D01*
X161932Y115601D02*
X163113D01*
X162522Y115011D02*
Y116192D01*
X158570Y115601D02*
X159751D01*
X159160Y115011D02*
Y116192D01*
X155207Y115601D02*
X156388D01*
X155798Y115011D02*
Y116192D01*
X151845Y115601D02*
X153026D01*
X152436Y115011D02*
Y116192D01*
X148483Y115601D02*
X149664D01*
X149073Y115011D02*
Y116192D01*
X145121Y115601D02*
X146302D01*
X145711Y115011D02*
Y116192D01*
X141759Y115601D02*
X142940D01*
X142349Y115011D02*
Y116192D01*
X129087Y117004D02*
X130268D01*
X129677Y116414D02*
Y117595D01*
X129276Y120361D02*
X130457D01*
X129867Y119771D02*
Y120952D01*
X142350Y121131D02*
X143531D01*
X142940Y120541D02*
Y121722D01*
X145712Y121131D02*
X146893D01*
X146303Y120541D02*
Y121722D01*
X149074Y121131D02*
X150255D01*
X149665Y120541D02*
Y121722D01*
X152436Y121131D02*
X153618D01*
X153027Y120541D02*
Y121722D01*
X155799Y121131D02*
X156980D01*
X156389Y120541D02*
Y121722D01*
X159049Y121993D02*
X160230D01*
X159639Y121402D02*
Y122583D01*
X168487Y185531D02*
X169668D01*
X169078Y184940D02*
Y186121D01*
X168364Y177067D02*
X169545D01*
X168954Y176477D02*
Y177658D01*
X165006Y177231D02*
X166187D01*
X165596Y176640D02*
Y177821D01*
X161932Y178593D02*
X163113D01*
X162522Y178003D02*
Y179184D01*
X158570Y178593D02*
X159751D01*
X159160Y178003D02*
Y179184D01*
X155207Y178593D02*
X156388D01*
X155798Y178003D02*
Y179184D01*
X151845Y178593D02*
X153026D01*
X152436Y178003D02*
Y179184D01*
X148483Y178593D02*
X149664D01*
X149073Y178003D02*
Y179184D01*
X145121Y178593D02*
X146302D01*
X145711Y178003D02*
Y179184D01*
X141759Y178593D02*
X142940D01*
X142349Y178003D02*
Y179184D01*
X129087Y179996D02*
X130268D01*
X129677Y179406D02*
Y180587D01*
X129276Y183353D02*
X130457D01*
X129867Y182763D02*
Y183944D01*
X142350Y184123D02*
X143531D01*
X142940Y183533D02*
Y184714D01*
X145712Y184123D02*
X146893D01*
X146303Y183533D02*
Y184714D01*
X149074Y184123D02*
X150255D01*
X149665Y183533D02*
Y184714D01*
X152436Y184123D02*
X153618D01*
X153027Y183533D02*
Y184714D01*
X155799Y184123D02*
X156980D01*
X156389Y183533D02*
Y184714D01*
X159049Y184985D02*
X160230D01*
X159639Y184394D02*
Y185575D01*
X159049Y247977D02*
X160230D01*
X159639Y247386D02*
Y248568D01*
X155799Y247115D02*
X156980D01*
X156389Y246525D02*
Y247706D01*
X152436Y247115D02*
X153618D01*
X153027Y246525D02*
Y247706D01*
X149074Y247115D02*
X150255D01*
X149665Y246525D02*
Y247706D01*
X145712Y247115D02*
X146893D01*
X146303Y246525D02*
Y247706D01*
X142350Y247115D02*
X143531D01*
X142940Y246525D02*
Y247706D01*
X129276Y246345D02*
X130457D01*
X129867Y245755D02*
Y246936D01*
X129087Y242988D02*
X130268D01*
X129677Y242398D02*
Y243579D01*
X141759Y241585D02*
X142940D01*
X142349Y240995D02*
Y242176D01*
X145121Y241585D02*
X146302D01*
X145711Y240995D02*
Y242176D01*
X148483Y241585D02*
X149664D01*
X149073Y240995D02*
Y242176D01*
X151845Y241585D02*
X153026D01*
X152436Y240995D02*
Y242176D01*
X155207Y241585D02*
X156388D01*
X155798Y240995D02*
Y242176D01*
X158570Y241585D02*
X159751D01*
X159160Y240995D02*
Y242176D01*
X161932Y241585D02*
X163113D01*
X162522Y240995D02*
Y242176D01*
X165006Y240223D02*
X166187D01*
X165596Y239633D02*
Y240813D01*
X168364Y240060D02*
X169545D01*
X168954Y239469D02*
Y240650D01*
X168487Y248523D02*
X169668D01*
X169078Y247933D02*
Y249114D01*
X165560Y256902D02*
X166741D01*
X166151Y256312D02*
Y257493D01*
X160030Y251766D02*
X161211D01*
X160621Y251175D02*
Y252357D01*
X165560Y250178D02*
X166741D01*
X166151Y249587D02*
Y250768D01*
X165560Y253540D02*
X166741D01*
X166151Y252950D02*
Y254131D01*
X160030Y255128D02*
X161211D01*
X160621Y254538D02*
Y255719D01*
X155118Y62894D02*
X156299D01*
X155709Y62303D02*
Y63484D01*
X155118Y125886D02*
X156299D01*
X155709Y125295D02*
Y126476D01*
X155118Y188878D02*
X156299D01*
X155709Y188287D02*
Y189469D01*
X155118Y251969D02*
X156299D01*
X155709Y251378D02*
Y252559D01*
X60827Y261319D02*
X62008D01*
X61417Y260728D02*
Y261910D01*
X102657Y43406D02*
X103839D01*
X103248Y42815D02*
Y43996D01*
X102657Y36811D02*
X103839D01*
X103248Y36220D02*
Y37402D01*
X102657Y106398D02*
X103839D01*
X103248Y105807D02*
Y106988D01*
X102657Y99803D02*
X103839D01*
X103248Y99213D02*
Y100394D01*
X102657Y169390D02*
X103839D01*
X103248Y168799D02*
Y169980D01*
X102657Y162795D02*
X103839D01*
X103248Y162205D02*
Y163386D01*
X102657Y225787D02*
X103839D01*
X103248Y225197D02*
Y226378D01*
X102657Y232382D02*
X103839D01*
X103248Y231791D02*
Y232972D01*
X60925Y72342D02*
X62106D01*
X61516Y71752D02*
Y72933D01*
X60827Y42815D02*
X62008D01*
X61417Y42224D02*
Y43406D01*
X80020Y43209D02*
X81201D01*
X80610Y42618D02*
Y43799D01*
X97047Y49114D02*
X98228D01*
X97638Y48524D02*
Y49705D01*
X105118Y68110D02*
X106299D01*
X105709Y67520D02*
Y68701D01*
X114469Y72244D02*
X115650D01*
X115059Y71653D02*
Y72835D01*
X143799Y72933D02*
X144980D01*
X144390Y72342D02*
Y73524D01*
X150492Y72933D02*
X151673D01*
X151083Y72342D02*
Y73524D01*
X155315Y68701D02*
X156496D01*
X155905Y68110D02*
Y69291D01*
X60925Y135335D02*
X62106D01*
X61516Y134744D02*
Y135925D01*
X60827Y105807D02*
X62008D01*
X61417Y105217D02*
Y106398D01*
X80020Y106201D02*
X81201D01*
X80610Y105610D02*
Y106791D01*
X97047Y112106D02*
X98228D01*
X97638Y111516D02*
Y112697D01*
X105118Y131102D02*
X106299D01*
X105709Y130512D02*
Y131693D01*
X114469Y135236D02*
X115650D01*
X115059Y134646D02*
Y135827D01*
X143799Y135925D02*
X144980D01*
X144390Y135335D02*
Y136516D01*
X150492Y135925D02*
X151673D01*
X151083Y135335D02*
Y136516D01*
X155315Y131693D02*
X156496D01*
X155905Y131102D02*
Y132283D01*
X60925Y198072D02*
X62106D01*
X61516Y197481D02*
Y198662D01*
X60827Y168544D02*
X62008D01*
X61417Y167954D02*
Y169135D01*
X80020Y168938D02*
X81201D01*
X80610Y168347D02*
Y169528D01*
X97047Y174843D02*
X98228D01*
X97638Y174253D02*
Y175434D01*
X105118Y193839D02*
X106299D01*
X105709Y193249D02*
Y194430D01*
X114469Y197973D02*
X115650D01*
X115059Y197383D02*
Y198564D01*
X143799Y198662D02*
X144980D01*
X144390Y198072D02*
Y199253D01*
X150492Y198662D02*
X151673D01*
X151083Y198072D02*
Y199253D01*
X155315Y194430D02*
X156496D01*
X155905Y193839D02*
Y195020D01*
X155315Y257677D02*
X156496D01*
X155905Y257087D02*
Y258268D01*
X150492Y261910D02*
X151673D01*
X151083Y261319D02*
Y262500D01*
X143799Y261910D02*
X144980D01*
X144390Y261319D02*
Y262500D01*
X114469Y261221D02*
X115650D01*
X115059Y260630D02*
Y261811D01*
X105118Y257087D02*
X106299D01*
X105709Y256496D02*
Y257677D01*
X97047Y238090D02*
X98228D01*
X97638Y237500D02*
Y238681D01*
X80020Y232185D02*
X81201D01*
X80610Y231594D02*
Y232776D01*
X60827Y231791D02*
X62008D01*
X61417Y231201D02*
Y232382D01*
X118110Y36909D02*
X119291D01*
X118701Y36319D02*
Y37500D01*
X118110Y43602D02*
X119291D01*
X118701Y43012D02*
Y44193D01*
X118110Y99902D02*
X119291D01*
X118701Y99311D02*
Y100492D01*
X118110Y106595D02*
X119291D01*
X118701Y106004D02*
Y107185D01*
X118110Y162894D02*
X119291D01*
X118701Y162303D02*
Y163484D01*
X118110Y169587D02*
X119291D01*
X118701Y168996D02*
Y170177D01*
X118110Y232579D02*
X119291D01*
X118701Y231988D02*
Y233169D01*
X118110Y225886D02*
X119291D01*
X118701Y225295D02*
Y226476D01*
X99311Y68012D02*
X100492D01*
X99902Y67421D02*
Y68602D01*
X99311Y131004D02*
X100492D01*
X99902Y130413D02*
Y131595D01*
X99311Y193996D02*
X100492D01*
X99902Y193405D02*
Y194587D01*
X69587Y38583D02*
X70768D01*
X70177Y37992D02*
Y39173D01*
X69587Y101575D02*
X70768D01*
X70177Y100984D02*
Y102165D01*
X69587Y164567D02*
X70768D01*
X70177Y163976D02*
Y165157D01*
X99311Y256988D02*
X100492D01*
X99902Y256398D02*
Y257579D01*
X69587Y227559D02*
X70768D01*
X70177Y226969D02*
Y228150D01*
X121222Y241922D02*
X122403D01*
X121812Y241332D02*
Y242513D01*
X104595Y52540D02*
X105777D01*
X105186Y51950D02*
Y53131D01*
X121222Y52946D02*
X122403D01*
X121812Y52355D02*
Y53536D01*
X101153Y184054D02*
X102334D01*
X101744Y183464D02*
Y184645D01*
X107878Y58070D02*
X109059D01*
X108468Y57480D02*
Y58661D01*
X84856Y182770D02*
X86037D01*
X85447Y182179D02*
Y183360D01*
X104516Y247046D02*
X105697D01*
X105106Y246456D02*
Y247637D01*
X121222Y115938D02*
X122403D01*
X121812Y115347D02*
Y116528D01*
X84883Y179408D02*
X86064D01*
X85473Y178817D02*
Y179998D01*
X101153Y58070D02*
X102334D01*
X101744Y57480D02*
Y58661D01*
X84925Y56854D02*
X86106D01*
X85516Y56264D02*
Y57445D01*
X104595Y178524D02*
X105777D01*
X105186Y177934D02*
Y179115D01*
X101233Y241516D02*
X102414D01*
X101824Y240926D02*
Y242107D01*
X107878Y184054D02*
X109059D01*
X108468Y183464D02*
Y184645D01*
X84952Y53492D02*
X86133D01*
X85542Y52902D02*
Y54083D01*
X107878Y121062D02*
X109059D01*
X108468Y120472D02*
Y121653D01*
X121795Y245235D02*
X122977D01*
X122386Y244645D02*
Y245826D01*
X121795Y56259D02*
X122977D01*
X122386Y55668D02*
Y56849D01*
X104516Y184054D02*
X105697D01*
X105106Y183464D02*
Y184645D01*
X101233Y178524D02*
X102414D01*
X101824Y177934D02*
Y179115D01*
X104595Y115532D02*
X105777D01*
X105186Y114942D02*
Y116123D01*
X121795Y119251D02*
X122977D01*
X122386Y118660D02*
Y119841D01*
X101233Y52540D02*
X102414D01*
X101824Y51950D02*
Y53131D01*
X101233Y115532D02*
X102414D01*
X101824Y114942D02*
Y116123D01*
X104516Y58070D02*
X105697D01*
X105106Y57480D02*
Y58661D01*
X107958Y178524D02*
X109139D01*
X108548Y177934D02*
Y179115D01*
X121222Y178930D02*
X122403D01*
X121812Y178340D02*
Y179521D01*
X97791Y121062D02*
X98972D01*
X98382Y120472D02*
Y121653D01*
X97871Y115532D02*
X99052D01*
X98462Y114942D02*
Y116123D01*
X84925Y119846D02*
X86106D01*
X85516Y119256D02*
Y120437D01*
X121795Y182243D02*
X122977D01*
X122386Y181652D02*
Y182834D01*
X97791Y247046D02*
X98972D01*
X98382Y246456D02*
Y247637D01*
X101153Y247046D02*
X102334D01*
X101744Y246456D02*
Y247637D01*
X97791Y58070D02*
X98972D01*
X98382Y57480D02*
Y58661D01*
X97871Y178524D02*
X99052D01*
X98462Y177934D02*
Y179115D01*
X84925Y245831D02*
X86106D01*
X85516Y245240D02*
Y246421D01*
X107958Y52540D02*
X109139D01*
X108548Y51950D02*
Y53131D01*
X97871Y52540D02*
X99052D01*
X98462Y51950D02*
Y53131D01*
X97791Y184054D02*
X98972D01*
X98382Y183464D02*
Y184645D01*
X107878Y247046D02*
X109059D01*
X108468Y246456D02*
Y247637D01*
X84952Y242469D02*
X86133D01*
X85542Y241878D02*
Y243059D01*
X107958Y241516D02*
X109139D01*
X108548Y240926D02*
Y242107D01*
X84952Y116484D02*
X86133D01*
X85542Y115894D02*
Y117075D01*
X107958Y115532D02*
X109139D01*
X108548Y114942D02*
Y116123D01*
X104595Y241516D02*
X105777D01*
X105186Y240926D02*
Y242107D01*
X97871Y241516D02*
X99052D01*
X98462Y240926D02*
Y242107D01*
X101153Y121062D02*
X102334D01*
X101744Y120472D02*
Y121653D01*
X104516Y121062D02*
X105697D01*
X105106Y120472D02*
Y121653D01*
X109604Y61567D02*
X110785D01*
X110195Y60976D02*
Y62157D01*
X38780Y70423D02*
X39961D01*
X39370Y69832D02*
Y71013D01*
X41982Y69400D02*
X43164D01*
X42573Y68809D02*
Y69990D01*
X43983Y66698D02*
X45164D01*
X44573Y66107D02*
Y67288D01*
X47110Y65462D02*
X48291D01*
X47700Y64871D02*
Y66052D01*
X50472Y65462D02*
X51653D01*
X51062Y64871D02*
Y66052D01*
X53834Y65462D02*
X55015D01*
X54425Y64871D02*
Y66052D01*
X65158Y63090D02*
X66339D01*
X65748Y62500D02*
Y63681D01*
X77583Y60524D02*
X78764D01*
X78173Y59934D02*
Y61115D01*
X53566Y59932D02*
X54747D01*
X54156Y59341D02*
Y60522D01*
X50204Y59932D02*
X51385D01*
X50794Y59341D02*
Y60522D01*
X46841Y59932D02*
X48022D01*
X47432Y59341D02*
Y60522D01*
X43479Y59932D02*
X44660D01*
X44070Y59341D02*
Y60522D01*
X40128Y59663D02*
X41309D01*
X40718Y59072D02*
Y60253D01*
X36772Y59869D02*
X37953D01*
X37363Y59279D02*
Y60460D01*
X34166Y61994D02*
X35347D01*
X34756Y61403D02*
Y62584D01*
X33299Y65242D02*
X34480D01*
X33890Y64652D02*
Y65833D01*
X34506Y68380D02*
X35688D01*
X35097Y67790D02*
Y68971D01*
X77583Y56121D02*
X78764D01*
X78173Y55530D02*
Y56712D01*
X77009Y52808D02*
X78190D01*
X77600Y52218D02*
Y53399D01*
X54283Y50089D02*
X55465D01*
X54874Y49499D02*
Y50680D01*
X50921Y50089D02*
X52102D01*
X51512Y49499D02*
Y50680D01*
X47559Y50089D02*
X48740D01*
X48149Y49499D02*
Y50680D01*
X44197Y50089D02*
X45378D01*
X44787Y49499D02*
Y50680D01*
X42517Y47177D02*
X43698D01*
X43108Y46586D02*
Y47767D01*
X39471Y45753D02*
X40652D01*
X40062Y45162D02*
Y46344D01*
X36166Y46372D02*
X37347D01*
X36757Y45782D02*
Y46963D01*
X33842Y48802D02*
X35023D01*
X34433Y48211D02*
Y49393D01*
X33386Y52133D02*
X34567D01*
X33976Y51542D02*
Y52723D01*
X34967Y55100D02*
X36148D01*
X35558Y54510D02*
Y55691D01*
X37979Y56595D02*
X39160D01*
X38570Y56004D02*
Y57185D01*
X41297Y56054D02*
X42478D01*
X41888Y55463D02*
Y56644D01*
X44631Y55619D02*
X45812D01*
X45222Y55029D02*
Y56210D01*
X47993Y55619D02*
X49175D01*
X48584Y55029D02*
Y56210D01*
X51356Y55619D02*
X52537D01*
X51946Y55029D02*
Y56210D01*
X54718Y55619D02*
X55899D01*
X55309Y55029D02*
Y56210D01*
X57471Y57549D02*
X58652D01*
X58062Y56959D02*
Y58140D01*
X65158Y57874D02*
X66339D01*
X65748Y57284D02*
Y58465D01*
X65059Y52658D02*
X66240D01*
X65650Y52067D02*
Y53248D01*
X109604Y124559D02*
X110785D01*
X110195Y123968D02*
Y125149D01*
X38780Y133415D02*
X39961D01*
X39370Y132824D02*
Y134005D01*
X41982Y132392D02*
X43164D01*
X42573Y131802D02*
Y132983D01*
X43983Y129690D02*
X45164D01*
X44573Y129099D02*
Y130280D01*
X47110Y128454D02*
X48291D01*
X47700Y127864D02*
Y129045D01*
X50472Y128454D02*
X51653D01*
X51062Y127864D02*
Y129045D01*
X53834Y128454D02*
X55015D01*
X54425Y127864D02*
Y129045D01*
X65158Y126083D02*
X66339D01*
X65748Y125492D02*
Y126673D01*
X77583Y123516D02*
X78764D01*
X78173Y122926D02*
Y124107D01*
X53566Y122924D02*
X54747D01*
X54156Y122333D02*
Y123514D01*
X50204Y122924D02*
X51385D01*
X50794Y122333D02*
Y123514D01*
X46841Y122924D02*
X48022D01*
X47432Y122333D02*
Y123514D01*
X43479Y122924D02*
X44660D01*
X44070Y122333D02*
Y123514D01*
X40128Y122655D02*
X41309D01*
X40718Y122064D02*
Y123245D01*
X36772Y122862D02*
X37953D01*
X37363Y122271D02*
Y123452D01*
X34166Y124986D02*
X35347D01*
X34756Y124395D02*
Y125576D01*
X33299Y128235D02*
X34480D01*
X33890Y127644D02*
Y128825D01*
X34506Y131372D02*
X35688D01*
X35097Y130782D02*
Y131963D01*
X77583Y119113D02*
X78764D01*
X78173Y118523D02*
Y119704D01*
X77009Y115800D02*
X78190D01*
X77600Y115210D02*
Y116391D01*
X54283Y113081D02*
X55465D01*
X54874Y112491D02*
Y113672D01*
X50921Y113081D02*
X52102D01*
X51512Y112491D02*
Y113672D01*
X47559Y113081D02*
X48740D01*
X48149Y112491D02*
Y113672D01*
X44197Y113081D02*
X45378D01*
X44787Y112491D02*
Y113672D01*
X42517Y110169D02*
X43698D01*
X43108Y109578D02*
Y110759D01*
X39471Y108745D02*
X40652D01*
X40062Y108155D02*
Y109336D01*
X36166Y109364D02*
X37347D01*
X36757Y108774D02*
Y109955D01*
X33842Y111794D02*
X35023D01*
X34433Y111204D02*
Y112385D01*
X33386Y115125D02*
X34567D01*
X33976Y114534D02*
Y115716D01*
X34967Y118092D02*
X36148D01*
X35558Y117502D02*
Y118683D01*
X37979Y119587D02*
X39160D01*
X38570Y118996D02*
Y120177D01*
X41297Y119046D02*
X42478D01*
X41888Y118455D02*
Y119636D01*
X44631Y118612D02*
X45812D01*
X45222Y118021D02*
Y119202D01*
X47993Y118612D02*
X49175D01*
X48584Y118021D02*
Y119202D01*
X51356Y118612D02*
X52537D01*
X51946Y118021D02*
Y119202D01*
X54718Y118612D02*
X55899D01*
X55309Y118021D02*
Y119202D01*
X57471Y120542D02*
X58652D01*
X58062Y119951D02*
Y121132D01*
X65158Y120866D02*
X66339D01*
X65748Y120276D02*
Y121457D01*
X65059Y115650D02*
X66240D01*
X65650Y115059D02*
Y116240D01*
X133745Y83196D02*
X134926D01*
X134335Y82606D02*
Y83787D01*
X136846Y81899D02*
X138028D01*
X137437Y81308D02*
Y82489D01*
X140209Y81899D02*
X141390D01*
X140799Y81308D02*
Y82489D01*
X143571Y81899D02*
X144752D01*
X144161Y81308D02*
Y82489D01*
X146933Y81899D02*
X148114D01*
X147524Y81308D02*
Y82489D01*
X150295Y81899D02*
X151476D01*
X150886Y81308D02*
Y82489D01*
X153657Y81899D02*
X154839D01*
X154248Y81308D02*
Y82489D01*
X156984Y81412D02*
X158165D01*
X157575Y80821D02*
Y82002D01*
X159440Y79116D02*
X160622D01*
X160031Y78525D02*
Y79706D01*
X161818Y76738D02*
X162999D01*
X162408Y76148D02*
Y77329D01*
X164195Y74361D02*
X165376D01*
X164786Y73770D02*
Y74951D01*
X165560Y71288D02*
X166741D01*
X166151Y70698D02*
Y71879D01*
X165560Y67926D02*
X166741D01*
X166151Y67335D02*
Y68516D01*
X165560Y64564D02*
X166741D01*
X166151Y63973D02*
Y65154D01*
X165560Y61202D02*
X166741D01*
X166151Y60611D02*
Y61792D01*
X160030Y62790D02*
X161211D01*
X160621Y62199D02*
Y63380D01*
X160030Y66152D02*
X161211D01*
X160621Y65561D02*
Y66742D01*
X160030Y69514D02*
X161211D01*
X160621Y68923D02*
Y70105D01*
X158324Y72411D02*
X159505D01*
X158915Y71821D02*
Y73002D01*
X155947Y74789D02*
X157128D01*
X156537Y74198D02*
Y75379D01*
X152979Y76369D02*
X154160D01*
X153569Y75778D02*
Y76959D01*
X149617Y76369D02*
X150798D01*
X150207Y75778D02*
Y76959D01*
X146255Y76369D02*
X147436D01*
X146845Y75778D02*
Y76959D01*
X142892Y76369D02*
X144073D01*
X143483Y75778D02*
Y76959D01*
X139530Y76369D02*
X140711D01*
X140121Y75778D02*
Y76959D01*
X136168Y76369D02*
X137349D01*
X136758Y75778D02*
Y76959D01*
X133121Y74947D02*
X134302D01*
X133712Y74357D02*
Y75538D01*
X129759Y74902D02*
X130940D01*
X130350Y74312D02*
Y75493D01*
X127854Y83366D02*
X129035D01*
X128445Y82776D02*
Y83957D01*
X129233Y70043D02*
X130414D01*
X129823Y69452D02*
Y70633D01*
X126414Y68209D02*
X127595D01*
X127005Y67619D02*
Y68800D01*
X126130Y64859D02*
X127311D01*
X126720Y64269D02*
Y65450D01*
X124089Y62187D02*
X125270D01*
X124680Y61596D02*
Y62777D01*
X121795Y59729D02*
X122977D01*
X122386Y59138D02*
Y60319D01*
X120788Y77441D02*
X121969D01*
X121379Y76850D02*
Y78031D01*
X120788Y80803D02*
X121969D01*
X121379Y80212D02*
Y81393D01*
X122973Y83358D02*
X124154D01*
X123564Y82767D02*
Y83948D01*
X133745Y146188D02*
X134926D01*
X134335Y145598D02*
Y146779D01*
X136846Y144891D02*
X138028D01*
X137437Y144300D02*
Y145482D01*
X140209Y144891D02*
X141390D01*
X140799Y144300D02*
Y145482D01*
X143571Y144891D02*
X144752D01*
X144161Y144300D02*
Y145482D01*
X146933Y144891D02*
X148114D01*
X147524Y144300D02*
Y145482D01*
X150295Y144891D02*
X151476D01*
X150886Y144300D02*
Y145482D01*
X153657Y144891D02*
X154839D01*
X154248Y144300D02*
Y145482D01*
X156984Y144404D02*
X158165D01*
X157575Y143813D02*
Y144994D01*
X159440Y142108D02*
X160622D01*
X160031Y141517D02*
Y142698D01*
X161818Y139730D02*
X162999D01*
X162408Y139140D02*
Y140321D01*
X164195Y137353D02*
X165376D01*
X164786Y136762D02*
Y137943D01*
X165560Y134280D02*
X166741D01*
X166151Y133690D02*
Y134871D01*
X165560Y130918D02*
X166741D01*
X166151Y130327D02*
Y131509D01*
X165560Y127556D02*
X166741D01*
X166151Y126965D02*
Y128146D01*
X165560Y124194D02*
X166741D01*
X166151Y123603D02*
Y124784D01*
X160030Y125782D02*
X161211D01*
X160621Y125191D02*
Y126372D01*
X160030Y129144D02*
X161211D01*
X160621Y128553D02*
Y129735D01*
X160030Y132506D02*
X161211D01*
X160621Y131916D02*
Y133097D01*
X158324Y135403D02*
X159505D01*
X158915Y134813D02*
Y135994D01*
X155947Y137781D02*
X157128D01*
X156537Y137190D02*
Y138371D01*
X152979Y139361D02*
X154160D01*
X153569Y138770D02*
Y139952D01*
X149617Y139361D02*
X150798D01*
X150207Y138770D02*
Y139952D01*
X146255Y139361D02*
X147436D01*
X146845Y138770D02*
Y139952D01*
X142892Y139361D02*
X144073D01*
X143483Y138770D02*
Y139952D01*
X139530Y139361D02*
X140711D01*
X140121Y138770D02*
Y139952D01*
X136168Y139361D02*
X137349D01*
X136758Y138770D02*
Y139952D01*
X133121Y137940D02*
X134302D01*
X133712Y137349D02*
Y138530D01*
X129759Y137894D02*
X130940D01*
X130350Y137304D02*
Y138485D01*
X127854Y146358D02*
X129035D01*
X128445Y145768D02*
Y146949D01*
X129233Y133035D02*
X130414D01*
X129823Y132444D02*
Y133625D01*
X126414Y131201D02*
X127595D01*
X127005Y130611D02*
Y131792D01*
X126130Y127851D02*
X127311D01*
X126720Y127261D02*
Y128442D01*
X124089Y125179D02*
X125270D01*
X124680Y124588D02*
Y125769D01*
X121795Y122721D02*
X122977D01*
X122386Y122130D02*
Y123311D01*
X120788Y140433D02*
X121969D01*
X121379Y139842D02*
Y141023D01*
X120788Y143795D02*
X121969D01*
X121379Y143204D02*
Y144386D01*
X122973Y146350D02*
X124154D01*
X123564Y145759D02*
Y146941D01*
X133745Y209180D02*
X134926D01*
X134335Y208590D02*
Y209771D01*
X136846Y207883D02*
X138028D01*
X137437Y207293D02*
Y208474D01*
X140209Y207883D02*
X141390D01*
X140799Y207293D02*
Y208474D01*
X143571Y207883D02*
X144752D01*
X144161Y207293D02*
Y208474D01*
X146933Y207883D02*
X148114D01*
X147524Y207293D02*
Y208474D01*
X150295Y207883D02*
X151476D01*
X150886Y207293D02*
Y208474D01*
X153657Y207883D02*
X154839D01*
X154248Y207293D02*
Y208474D01*
X156984Y207396D02*
X158165D01*
X157575Y206805D02*
Y207986D01*
X159440Y205100D02*
X160622D01*
X160031Y204509D02*
Y205690D01*
X161818Y202722D02*
X162999D01*
X162408Y202132D02*
Y203313D01*
X164195Y200345D02*
X165376D01*
X164786Y199754D02*
Y200936D01*
X165560Y197272D02*
X166741D01*
X166151Y196682D02*
Y197863D01*
X165560Y193910D02*
X166741D01*
X166151Y193320D02*
Y194501D01*
X165560Y190548D02*
X166741D01*
X166151Y189957D02*
Y191139D01*
X165560Y187186D02*
X166741D01*
X166151Y186595D02*
Y187776D01*
X160030Y188774D02*
X161211D01*
X160621Y188183D02*
Y189364D01*
X160030Y192136D02*
X161211D01*
X160621Y191545D02*
Y192727D01*
X160030Y195498D02*
X161211D01*
X160621Y194908D02*
Y196089D01*
X158324Y198395D02*
X159505D01*
X158915Y197805D02*
Y198986D01*
X155947Y200773D02*
X157128D01*
X156537Y200182D02*
Y201363D01*
X152979Y202353D02*
X154160D01*
X153569Y201763D02*
Y202944D01*
X149617Y202353D02*
X150798D01*
X150207Y201763D02*
Y202944D01*
X146255Y202353D02*
X147436D01*
X146845Y201763D02*
Y202944D01*
X142892Y202353D02*
X144073D01*
X143483Y201763D02*
Y202944D01*
X139530Y202353D02*
X140711D01*
X140121Y201763D02*
Y202944D01*
X136168Y202353D02*
X137349D01*
X136758Y201763D02*
Y202944D01*
X133121Y200932D02*
X134302D01*
X133712Y200341D02*
Y201522D01*
X129759Y200886D02*
X130940D01*
X130350Y200296D02*
Y201477D01*
X127854Y209350D02*
X129035D01*
X128445Y208760D02*
Y209941D01*
X129233Y196027D02*
X130414D01*
X129823Y195436D02*
Y196617D01*
X126414Y194193D02*
X127595D01*
X127005Y193603D02*
Y194784D01*
X126130Y190843D02*
X127311D01*
X126720Y190253D02*
Y191434D01*
X124089Y188171D02*
X125270D01*
X124680Y187581D02*
Y188762D01*
X121795Y185713D02*
X122977D01*
X122386Y185122D02*
Y186303D01*
X120788Y203425D02*
X121969D01*
X121379Y202834D02*
Y204015D01*
X120788Y206787D02*
X121969D01*
X121379Y206196D02*
Y207378D01*
X122973Y209342D02*
X124154D01*
X123564Y208752D02*
Y209933D01*
X109604Y187551D02*
X110785D01*
X110195Y186960D02*
Y188141D01*
X64961Y189075D02*
X66142D01*
X65551Y188484D02*
Y189665D01*
X64961Y178445D02*
X66142D01*
X65551Y177854D02*
Y179035D01*
X34611Y194501D02*
X35792D01*
X35202Y193911D02*
Y195092D01*
X33320Y191397D02*
X34501D01*
X33911Y190806D02*
Y191987D01*
X34093Y188125D02*
X35274D01*
X34684Y187534D02*
Y188715D01*
X36626Y185914D02*
X37808D01*
X37217Y185323D02*
Y186504D01*
X39974Y185595D02*
X41155D01*
X40564Y185004D02*
Y186185D01*
X43320Y185916D02*
X44501D01*
X43911Y185326D02*
Y186507D01*
X46683Y185916D02*
X47864D01*
X47273Y185326D02*
Y186507D01*
X50045Y185916D02*
X51226D01*
X50635Y185326D02*
Y186507D01*
X53407Y185916D02*
X54588D01*
X53997Y185326D02*
Y186507D01*
X56791Y184646D02*
X57972D01*
X57382Y184055D02*
Y185236D01*
X77583Y186253D02*
X78764D01*
X78173Y185663D02*
Y186844D01*
X53834Y191446D02*
X55015D01*
X54425Y190856D02*
Y192037D01*
X50472Y191446D02*
X51653D01*
X51062Y190856D02*
Y192037D01*
X47110Y191446D02*
X48291D01*
X47700Y190856D02*
Y192037D01*
X43983Y192682D02*
X45164D01*
X44573Y192091D02*
Y193272D01*
X41982Y195384D02*
X43164D01*
X42573Y194794D02*
Y195975D01*
X38780Y196407D02*
X39961D01*
X39370Y195816D02*
Y196997D01*
X65256Y183858D02*
X66437D01*
X65847Y183268D02*
Y184449D01*
X54718Y181604D02*
X55899D01*
X55309Y181013D02*
Y182194D01*
X51356Y181604D02*
X52537D01*
X51946Y181013D02*
Y182194D01*
X47993Y181604D02*
X49175D01*
X48584Y181013D02*
Y182194D01*
X44631Y181604D02*
X45812D01*
X45222Y181013D02*
Y182194D01*
X41297Y182038D02*
X42478D01*
X41888Y181447D02*
Y182628D01*
X37979Y182579D02*
X39160D01*
X38570Y181989D02*
Y183170D01*
X34967Y181084D02*
X36148D01*
X35558Y180494D02*
Y181675D01*
X33386Y178117D02*
X34567D01*
X33976Y177527D02*
Y178708D01*
X33842Y174786D02*
X35023D01*
X34433Y174196D02*
Y175377D01*
X36166Y172356D02*
X37347D01*
X36757Y171766D02*
Y172947D01*
X39471Y171737D02*
X40652D01*
X40062Y171147D02*
Y172328D01*
X42517Y173161D02*
X43698D01*
X43108Y172571D02*
Y173752D01*
X44197Y176074D02*
X45378D01*
X44787Y175483D02*
Y176664D01*
X47559Y176074D02*
X48740D01*
X48149Y175483D02*
Y176664D01*
X50921Y176074D02*
X52102D01*
X51512Y175483D02*
Y176664D01*
X54283Y176074D02*
X55465D01*
X54874Y175483D02*
Y176664D01*
X77009Y178792D02*
X78190D01*
X77600Y178202D02*
Y179383D01*
X77583Y182105D02*
X78764D01*
X78173Y181515D02*
Y182696D01*
X65059Y241634D02*
X66240D01*
X65650Y241043D02*
Y242224D01*
X65158Y246850D02*
X66339D01*
X65748Y246260D02*
Y247441D01*
X57471Y246526D02*
X58652D01*
X58062Y245935D02*
Y247116D01*
X54718Y244596D02*
X55899D01*
X55309Y244005D02*
Y245186D01*
X51356Y244596D02*
X52537D01*
X51946Y244005D02*
Y245186D01*
X47993Y244596D02*
X49175D01*
X48584Y244005D02*
Y245186D01*
X44631Y244596D02*
X45812D01*
X45222Y244005D02*
Y245186D01*
X41297Y245030D02*
X42478D01*
X41888Y244440D02*
Y245621D01*
X37979Y245571D02*
X39160D01*
X38570Y244981D02*
Y246162D01*
X34967Y244076D02*
X36148D01*
X35558Y243486D02*
Y244667D01*
X33386Y241109D02*
X34567D01*
X33976Y240519D02*
Y241700D01*
X33842Y237778D02*
X35023D01*
X34433Y237188D02*
Y238369D01*
X36166Y235349D02*
X37347D01*
X36757Y234758D02*
Y235939D01*
X39471Y234729D02*
X40652D01*
X40062Y234139D02*
Y235320D01*
X42517Y236153D02*
X43698D01*
X43108Y235563D02*
Y236744D01*
X44197Y239066D02*
X45378D01*
X44787Y238475D02*
Y239656D01*
X47559Y239066D02*
X48740D01*
X48149Y238475D02*
Y239656D01*
X50921Y239066D02*
X52102D01*
X51512Y238475D02*
Y239656D01*
X54283Y239066D02*
X55465D01*
X54874Y238475D02*
Y239656D01*
X77009Y241785D02*
X78190D01*
X77600Y241194D02*
Y242375D01*
X77583Y245097D02*
X78764D01*
X78173Y244507D02*
Y245688D01*
X34506Y257357D02*
X35688D01*
X35097Y256766D02*
Y257947D01*
X33299Y254219D02*
X34480D01*
X33890Y253628D02*
Y254809D01*
X34166Y250970D02*
X35347D01*
X34756Y250380D02*
Y251561D01*
X36772Y248846D02*
X37953D01*
X37363Y248255D02*
Y249436D01*
X40128Y248639D02*
X41309D01*
X40718Y248048D02*
Y249230D01*
X43479Y248908D02*
X44660D01*
X44070Y248318D02*
Y249499D01*
X46841Y248908D02*
X48022D01*
X47432Y248318D02*
Y249499D01*
X50204Y248908D02*
X51385D01*
X50794Y248318D02*
Y249499D01*
X53566Y248908D02*
X54747D01*
X54156Y248318D02*
Y249499D01*
X77583Y249500D02*
X78764D01*
X78173Y248910D02*
Y250091D01*
X65158Y252067D02*
X66339D01*
X65748Y251476D02*
Y252658D01*
X53834Y254438D02*
X55015D01*
X54425Y253848D02*
Y255029D01*
X50472Y254438D02*
X51653D01*
X51062Y253848D02*
Y255029D01*
X47110Y254438D02*
X48291D01*
X47700Y253848D02*
Y255029D01*
X43983Y255674D02*
X45164D01*
X44573Y255083D02*
Y256264D01*
X41982Y258376D02*
X43164D01*
X42573Y257786D02*
Y258967D01*
X38780Y259399D02*
X39961D01*
X39370Y258808D02*
Y259989D01*
X122973Y272334D02*
X124154D01*
X123564Y271744D02*
Y272925D01*
X120788Y269779D02*
X121969D01*
X121379Y269189D02*
Y270370D01*
X120788Y266417D02*
X121969D01*
X121379Y265826D02*
Y267007D01*
X109604Y250543D02*
X110785D01*
X110195Y249952D02*
Y251133D01*
X121795Y248705D02*
X122977D01*
X122386Y248114D02*
Y249296D01*
X124089Y251163D02*
X125270D01*
X124680Y250573D02*
Y251754D01*
X126130Y253836D02*
X127311D01*
X126720Y253245D02*
Y254426D01*
X126414Y257186D02*
X127595D01*
X127005Y256595D02*
Y257776D01*
X129233Y259019D02*
X130414D01*
X129823Y258428D02*
Y259610D01*
X127854Y272342D02*
X129035D01*
X128445Y271752D02*
Y272933D01*
X129759Y263878D02*
X130940D01*
X130350Y263288D02*
Y264469D01*
X133121Y263924D02*
X134302D01*
X133712Y263333D02*
Y264514D01*
X136168Y265345D02*
X137349D01*
X136758Y264755D02*
Y265936D01*
X139530Y265345D02*
X140711D01*
X140121Y264755D02*
Y265936D01*
X142892Y265345D02*
X144073D01*
X143483Y264755D02*
Y265936D01*
X146255Y265345D02*
X147436D01*
X146845Y264755D02*
Y265936D01*
X149617Y265345D02*
X150798D01*
X150207Y264755D02*
Y265936D01*
X152979Y265345D02*
X154160D01*
X153569Y264755D02*
Y265936D01*
X155947Y263765D02*
X157128D01*
X156537Y263175D02*
Y264356D01*
X158324Y261388D02*
X159505D01*
X158915Y260797D02*
Y261978D01*
X160030Y258490D02*
X161211D01*
X160621Y257900D02*
Y259081D01*
X165560Y260264D02*
X166741D01*
X166151Y259674D02*
Y260855D01*
X164195Y263337D02*
X165376D01*
X164786Y262747D02*
Y263928D01*
X161818Y265715D02*
X162999D01*
X162408Y265124D02*
Y266305D01*
X159440Y268092D02*
X160622D01*
X160031Y267501D02*
Y268683D01*
X156984Y270388D02*
X158165D01*
X157575Y269797D02*
Y270978D01*
X153657Y270875D02*
X154839D01*
X154248Y270285D02*
Y271466D01*
X150295Y270875D02*
X151476D01*
X150886Y270285D02*
Y271466D01*
X146933Y270875D02*
X148114D01*
X147524Y270285D02*
Y271466D01*
X143571Y270875D02*
X144752D01*
X144161Y270285D02*
Y271466D01*
X140209Y270875D02*
X141390D01*
X140799Y270285D02*
Y271466D01*
X136846Y270875D02*
X138028D01*
X137437Y270285D02*
Y271466D01*
X133745Y272173D02*
X134926D01*
X134335Y271582D02*
Y272763D01*
M02*
