G04*
G04 #@! TF.GenerationSoftware,Altium Limited,Altium Designer,25.1.2 (22)*
G04*
G04 Layer_Color=255*
%FSLAX25Y25*%
%MOIN*%
G70*
G04*
G04 #@! TF.SameCoordinates,F9270A21-815C-4611-AB15-1A1B74E7ADE5*
G04*
G04*
G04 #@! TF.FilePolarity,Positive*
G04*
G01*
G75*
%ADD24C,0.11811*%
%ADD25C,0.06496*%
D24*
X194882Y299213D02*
D03*
X29528D02*
D03*
X194882Y23622D02*
D03*
X29528D02*
D03*
D25*
X117815Y312992D02*
D03*
Y293307D02*
D03*
X104035Y312992D02*
D03*
Y293307D02*
D03*
X90256Y312992D02*
D03*
Y293307D02*
D03*
X19685Y190945D02*
D03*
X39370D02*
D03*
X19685Y177165D02*
D03*
X39370D02*
D03*
X19685Y253937D02*
D03*
X39370D02*
D03*
X19685Y240158D02*
D03*
X39370D02*
D03*
X220079Y244291D02*
D03*
X200394D02*
D03*
X220079Y258071D02*
D03*
X200394D02*
D03*
X220079Y181299D02*
D03*
X200394D02*
D03*
X220079Y195079D02*
D03*
X200394D02*
D03*
X19685Y127953D02*
D03*
X39370D02*
D03*
X19685Y114173D02*
D03*
X39370D02*
D03*
X220079Y118307D02*
D03*
X200394D02*
D03*
X220079Y132087D02*
D03*
X200394D02*
D03*
X19685Y64961D02*
D03*
X39370D02*
D03*
X19685Y51181D02*
D03*
X39370D02*
D03*
X220079Y55315D02*
D03*
X200394D02*
D03*
X220079Y69095D02*
D03*
X200394D02*
D03*
M02*
