M48
;Layer_Color=9474304
;FILE_FORMAT=2:4
INCH,TZ
;TYPE=PLATED
T01F00S00C0.0118
T02F00S00C0.0433
;TYPE=NON_PLATED
T03F00S00C0.1181
%
T01
X3676Y4637
X4006Y4575
X4311Y4718
X4479Y5009
X4815
X5151
X5487
X5531Y5562
X5195
X4858
X4522
X4189Y5605
X3857Y5659
X3736Y5987
X4072Y5966
X4407Y5993
X4743
X5079
X5416
X5442Y6546
X5106
X4770
X4457Y6670
X4257Y6940
X3937Y7042
X3510Y6838
X3389Y6524
X3476Y6199
X3556Y5510
X3398Y5213
X3443Y4880
X5806Y5755
X6575Y5787
Y6309
X6565Y5266
X7760Y5281
X7817Y5612
Y6052
X8552Y5685
X8554Y5349
X9846Y5254
X10182
X10519
X10855
X10847Y5807
X10511
X10174
X9838
X9764Y4911
X10325Y4341
Y3681
X11870Y3691
Y4360
X12181Y5295
X12239Y5626
Y5973
X12468Y6219
X12672Y6486
X12700Y6821
X12982Y7004
X13035Y7490
X13371Y7495
X13676Y7637
X14012
X14348
X14685
X15021
X15357
X15108Y7293
X14439
X15591Y6870
X15571Y6289
X15303Y5814
X14966
X14630
X14294
X14235Y5261
X14571
X14907
X15244
X15580
X12968Y5401
X12987Y5737
X11019Y6157
X10571Y6811
X9990Y6801
X11506Y7224
X12138Y7744
Y8080
X6152Y7234
X6142Y4281
X7018Y3858
X8061Y4321
X15916Y5261
X16252
X16560Y5125
X16895Y5108
X17447
X17305Y5955
X17641Y5952
X17977Y5953
X18313Y5950
X18618Y5808
X18954
X19290
X19618Y5882
X20039Y6078
X20360Y5975
X20560Y5705
X20563Y5369
X20369Y5094
X20051Y4985
X19729Y5080
X19441Y5255
X19105
X18769
X16908Y5955
X16615Y6120
Y6456
Y6793
Y7129
X16479Y7436
X16241Y7674
X16003Y7912
X15757Y8141
X15654Y7479
X15891Y7241
X16062Y6951
Y6615
Y6279
X15964Y5900
X15639Y5814
X15916Y11560
X16252
X16560Y11424
X16895Y11408
X17447
X17305Y12254
X17641Y12252
X17977Y12252
X18313Y12249
X18618Y12107
X18954
X19290
X19618Y12181
X20039Y12377
X20360Y12275
X20560Y12004
X20563Y11668
X20369Y11394
X20051Y11284
X19729Y11379
X19441Y11554
X19105
X18769
X16908Y12254
X16615Y12419
Y12756
Y13092
Y13428
X16479Y13735
X16241Y13973
X16003Y14211
X15757Y14440
X15654Y13778
X15891Y13540
X16062Y13251
Y12914
Y12578
X15964Y12199
X15639Y12113
X15916Y17859
X16252
X16560Y17723
X16895Y17707
X17447
X17305Y18553
X17641Y18551
X17977Y18551
X18313Y18549
X18618Y18406
X18954
X19290
X19618Y18480
X20039Y18676
X20360Y18574
X20560Y18304
X20563Y17967
X20369Y17693
X20051Y17583
X19729Y17679
X19441Y17853
X19105
X18769
X16908Y18553
X16615Y18719
Y19055
Y19391
Y19727
X16479Y20034
X16241Y20272
X16003Y20510
X15757Y20740
X15654Y20077
X15891Y19840
X16062Y19550
Y19214
Y18877
X15964Y18498
X15639Y18412
X15303
X14966
X14630
X14294
X14235Y17859
X14571
X14907
X15244
X15580
X15571Y18888
X15591Y19443
X15108Y19866
X15021Y20235
X15357
X15425Y20788
X15089
X14752
X14416
X14080
X13744
X13434Y20918
X12844Y20935
X12356Y20934
X12138Y20679
Y20342
X13035Y20089
X13371Y20093
X13676Y20235
X14012
X14348
X14685
X14439Y19866
X12982Y19603
X12700Y19419
X12672Y19084
X12468Y18817
X12239Y18571
Y18224
X12181Y17893
X12968Y18000
X12987Y18335
X10847Y18405
X10511
X10174
X9838
X9846Y17852
X10182
X10519
X10855
X11019Y18755
X10571Y19384
X9990Y19400
X11506Y19797
X11870Y22589
Y23258
X10325Y23238
Y22579
X8061Y23219
X7018Y22756
X6142Y23179
X4311Y23615
X4006Y23473
X3676Y23535
X3937Y19641
X4257Y19538
X4457Y19268
X4770Y19145
X5106
X5442
X5400Y18592
X5064
X4727
X4391
X4056Y18559
X3722Y18591
X3857Y18258
X4189Y18204
X4522Y18160
X4858
X5195
X5531
X5738Y18465
X6585Y18386
X6555Y18907
Y17844
X7760Y17879
X7817Y18211
Y18625
X8545Y18277
X8547Y17941
X8061Y16894
X7018Y16457
X6142Y16854
X5487Y17607
X5151
X4815
X4479
X4311Y17316
X4006Y17174
X3676Y17236
X3443Y17479
X3398Y17812
X3556Y18108
X3468Y18812
X3391Y19140
X3520Y19450
X6152Y19807
X9764Y17484
X10325Y16939
Y16280
X11870Y16289
Y16959
X12356Y14635
X12138Y14379
Y14043
X13035Y13789
X13371Y13794
X13676Y13936
X14012
X14348
X14685
X15021
X15357
X15108Y13593
X14439
X14416Y14489
X14080
X13744
X13434Y14619
X12844Y14636
X12982Y13303
X12700Y13120
X12672Y12785
X12468Y12518
X12239Y12272
Y11925
X12181Y11594
X12968Y11700
X12987Y12036
X14294Y12113
X14630
X14966
X15303
X15244Y11560
X15580
X14907
X14571
X14235
X15571Y12589
X15591Y13169
X15425Y14489
X15089
X14752
X11506Y13524
X10571Y13110
X9990Y13100
X9838Y12106
X10174
X10511
X10847
X11019Y12456
X10855Y11553
X10519
X10182
X9846
X9764Y11211
X10325Y10640
Y9980
X11870Y9990
Y10659
X12356Y8336
X12844Y8337
X13434Y8320
X13744Y8190
X14080
X14416
X14752
X15089
X15425
X8061Y10620
X7760Y11580
X7817Y11911
Y12352
X8552Y11985
X8554Y11648
X6565Y11565
X6575Y12087
Y12608
X5806Y12054
X5531Y11861
X5195
X4858
X4522
X4189Y11905
X3857Y11959
X3736Y12286
X4072Y12265
X4407Y12292
X4743
X5079
X5416
X5442Y12845
X5106
X4770
X4457Y12969
X4257Y13239
X3937Y13341
X3510Y13137
X3389Y12823
X3476Y12499
X3556Y11809
X3398Y11513
X3443Y11179
X3676Y10936
X4006Y10875
X4311Y11017
X4479Y11308
X4815
X5151
X5487
X6142Y10581
X7018Y10157
X6152Y13533
X5487Y23907
X5151
X4815
X4479
X4522Y24460
X4858
X5195
X5531
X5806Y24653
X5416Y24891
X5079
X4743
X4407
X4072Y24864
X3736Y24885
X3857Y24557
X4189Y24503
X3556Y24408
X3398Y24111
X3443Y23778
X3476Y25097
X3389Y25422
X3510Y25736
X3937Y25940
X4257Y25838
X4457Y25567
X4770Y25444
X5106
X5442
X6575Y25207
Y24685
X6565Y24163
X7760Y24178
X7817Y24510
Y24950
X8552Y24583
X8554Y24247
X9846Y24152
X10182
X10519
X10855
X10847Y24705
X10511
X10174
X9838
X9764Y23809
X9990Y25699
X10571Y25709
X11019Y25054
X12239Y24871
Y24524
X12181Y24192
X12968Y24299
X12987Y24635
X12468Y25116
X12672Y25384
X12700Y25719
X12982Y25902
X13035Y26388
X13371Y26392
X13676Y26535
X14012
X14348
X14685
X15021
X15357
X15108Y26191
X14439
X14416Y27088
X14752
X15089
X15425
X14080
X13744
X13434Y27217
X12844Y27234
X12356Y27233
X12138Y26978
Y26642
X11506Y26122
X14294Y24712
X14630
X14966
X15303
X15244Y24159
X14907
X14571
X14235
X15580
X15571Y25197
X15591Y25768
X6142Y26132
X15891Y26139
X16062Y25849
Y25513
Y25177
X15964Y24798
X15639Y24712
X15916Y24159
X16252
X16560Y24022
X16895Y24006
X17447
X17305Y24852
X17641Y24850
X17977Y24850
X18313Y24848
X18618Y24706
X18954
X19290
X19618Y24779
X20039Y24975
X20360Y24873
X20560Y24603
X20563Y24267
X20369Y23992
X20051Y23882
X19729Y23978
X19441Y24153
X19105
X18769
X16908Y24852
X16615Y25018
Y25354
Y25690
Y26026
X16479Y26334
X16241Y26571
X16003Y26809
X15757Y27039
X15654Y26377
T02
X1969Y5118
Y6496
X3937
Y5118
X20039Y5531
Y6909
X22008
Y5531
Y11831
Y13209
X20039
Y11831
Y18130
Y19508
X22008
Y18130
X3937Y17717
Y19094
X1969
Y17717
Y12795
Y11417
X3937
Y12795
Y24016
Y25394
X1969
Y24016
X9026Y29331
X10404
X11782
Y31299
X10404
X9026
X20039Y25807
Y24429
X22008
Y25807
T03
X2953Y2362
X19488
X2953Y29921
X19488
M30
